<?xml version="1.0" encoding="UTF-8"?>
<svg xmlns="http://www.w3.org/2000/svg" width="160" height="160"
  viewBox="0 0 160 160">
  <g id="a">
    <circle cx="79.97" cy="80.3" r="78.05" style="fill:#e8a09d;" />
  </g>
  <g id="b">
    <path
      d="M124.61,43.53v1.7c-.35,6.27-3.42,9.43-7.58,13.57-2.61,2.6-5.33,5.15-7.96,7.73-3.58,3.52-7.09,7.12-10.72,10.59l-16.54-16.2-25.57,25.1-.36-.14c-5.81-6.12-6.23-15.5-.84-22.05.89-1.08,1.94-1.94,2.92-2.91,4.88-4.88,9.82-9.68,14.74-14.52,3.01-2.96,5.93-6.02,9.03-8.9l16.55,16.09,21.31-20.85c.38-.07,2.28,2.58,2.56,3.03,1.4,2.28,2.3,5.12,2.46,7.77Z"
      style="fill:#fff;" />
    <path
      d="M79.73,75.46c10.14-.79,14.66,5.96,21.07,12.26,2.59,2.55,5.24,5.09,7.85,7.62.42.41.9.84,1.22,1.33,0,.22-2.64,2.75-3.02,3.13-2.59,2.55-5.26,5.08-7.85,7.62-3.86,3.78-8.02,9.02-13.15,10.92-6.03,2.23-13.26.84-17.76-3.78l18.02-17.89-16.65-16.42c2.65-2.69,6.47-4.49,10.26-4.79Z"
      style="fill:#fff;" />
    <path
      d="M31.92,117.6l33.14-32.74,11.81,11.62-.09.3-21.64,21.3c-6.58,5.8-16.61,5.68-22.96-.38-.07-.06-.17-.1-.26-.11Z"
      style="fill:#fff;" />
  </g>
</svg>