<svg xmlns="http://www.w3.org/2000/svg" width="1187.44" height="258.39">
  <path
    d="M167.97 150.6v-140h48v239c0 .23-2.9 3.99-4 2.02l-160-151.02v140h-46v-242l162 152ZM811.97 10.6v153c0 7.29 5.19 22.07 10 28 21.01 25.87 72 11.14 72-22v-159h48v171c0 .96-4.72 16.06-5.63 18.37-30.31 76.71-172.37 62.13-172.37-30.37v-159h48ZM1093.58 5.2c28.32-1.61 57.17 9.39 75.41 31.37 2.29 2.76 11.04 14.62 11.05 17.09.01 5.73-29.59 18.91-35.46 22.69-3.3.28-12.38-14.94-16.77-18.61-36.02-30.06-88.49 10.14-27.2 39.2 31.33 14.86 74.14 22.04 80.87 65.13 14.07 90.12-109.18 112.01-160.53 46.53-23.78-30.32-.03-28.28 21.89-46 12.41 19.69 28.63 40.96 54.09 42.07 21.57.94 36.57-9.88 32.89-32.96-3.63-22.75-53.15-32.87-71.92-44.06-64.5-38.44-37.5-118.29 35.68-122.46ZM443.97 10.6v40h-100v48h94v40h-94v62h100v40h-148v-230h148z"
    style="fill:#fff" />
  <path d="m499.97 240.6 74.01-119.19L507.97 10.6h57l66.87 111-74.87 119h-57z" style="fill:#fff" />
  <path d="M709.97 240.6h-60l-33.85-56.99 26.85-44.97 67 101.96zM699.97 10.6l-58.98 96.01-26.87-47.03 28.85-48.98h57z"
    style="fill:#fff" />
</svg>