<svg xmlns="http://www.w3.org/2000/svg" width="564.27" height="209.8">
  <path
    d="M233.28 150.59h1.6l-4.37 20.61h-1.6l2.07-9.72H218.4l-2.07 9.72h-1.6l4.37-20.61h1.6l-2.01 9.43h12.58l2.01-9.43ZM236.33 166.11c0-5.07 3.64-9.49 8.62-9.49 3.73 0 5.71 2.36 5.71 5.71 0 5.07-3.67 9.46-8.65 9.46-3.7 0-5.68-2.3-5.68-5.68Zm12.75-3.55c0-2.68-1.46-4.54-4.37-4.54-3.99 0-6.81 3.87-6.81 7.89 0 2.71 1.51 4.48 4.31 4.48 4.02 0 6.87-3.87 6.87-7.83ZM252.19 170.13l.5-1.43h.09c1.43 1.28 2.59 1.78 4.11 1.78 1.92 0 3.7-1.22 3.7-2.94 0-1.19-.7-1.98-2.65-2.88-2.65-1.28-3.55-2.33-3.55-4.08 0-2.24 2.04-3.96 4.92-3.96 1.37 0 2.85.47 4.16 1.4l-.47 1.43h-.09c-1.37-1.14-2.62-1.51-3.79-1.51-1.92 0-3.2 1.17-3.2 2.56 0 1.16.64 1.86 2.94 3 2.39 1.19 3.23 2.18 3.23 3.81 0 2.65-2.47 4.48-5.36 4.48-1.75 0-3.14-.55-4.54-1.66ZM266.75 167.27l1.86-8.76h-2.65l.26-1.31h2.71l.84-3.99 1.43-.76h.2l-1.02 4.75h4.57l-.29 1.31h-4.57l-1.92 9.03c-.44 2.18.15 2.85 1.66 2.85.84 0 1.66-.23 2.33-.58l.12.06-.2 1.34c-.79.35-1.75.58-2.68.58-2.33 0-3.32-1.37-2.65-4.51ZM276.91 164.33a8.65 8.65 0 0 0-.17 1.75c0 2.79 1.54 4.37 4.05 4.37 1.63 0 3.41-.47 5.3-1.78h.09l-.15 1.46c-1.78 1.08-3.64 1.66-5.5 1.66-3.46 0-5.33-2.12-5.33-5.59 0-4.95 3.41-9.58 8.27-9.58 3.12 0 4.95 1.98 4.95 5.15 0 .79-.15 1.86-.35 2.56h-11.15Zm.29-1.19 9.58.03c.09-.5.12-.93.12-1.37 0-2.45-1.31-3.84-3.64-3.84-2.97 0-5.15 2.36-6.05 5.18ZM305.35 149.81h1.49l-4.54 21.4h-1.31l.29-1.83c-1.78 1.48-3.7 2.42-5.5 2.42-3.09 0-4.83-2.12-4.83-5.5 0-5.01 3.55-9.67 8.38-9.67 1.6 0 3.12.64 4.22 1.63l1.8-8.44Zm-9.17 20.61c1.89 0 3.67-.99 5.3-2.39l1.81-8.44c-1.14-.96-2.45-1.57-4.11-1.57-3.84 0-6.67 4.05-6.67 8.12 0 2.71 1.37 4.28 3.67 4.28ZM328.81 162.03c0 4.86-3.52 9.75-8.41 9.75-1.72 0-3.26-.7-4.4-1.75l-.32 1.17h-1.25l4.54-21.4h1.49l-1.95 9.14c1.75-1.4 3.7-2.33 5.56-2.33 2.94 0 4.75 2.15 4.75 5.42Zm-1.6.24c0-2.62-1.31-4.25-3.67-4.25-1.86 0-3.76.99-5.36 2.39l-1.78 8.44c1.14.99 2.45 1.57 4.02 1.57 4.05 0 6.78-4.25 6.78-8.15ZM330.5 177.61v-.09l4.4-6.7-2.59-13.54.06-.09h1.51l.81 4.51c.41 2.21.93 5.21 1.31 7.45h.06c1.34-2.21 3.17-5.18 4.57-7.39l2.85-4.57h1.69l.03.12-13.13 20.29h-1.57ZM68.65 195.89c0-6.38 4.45-10.95 10.89-10.95 3.35 0 6.03 1.25 8.09 2.65l-.52 3.38h-.12c-2.1-1.66-4.45-2.85-7.28-2.85-4.66 0-7.45 3.23-7.45 7.74s2.71 7.74 7.02 7.74c1.75 0 3.49-.44 5.12-1.37v-4.48h-5.42v-2.71h8.53v9.08c-3.03 1.95-5.74 2.59-8.41 2.59-6.43 0-10.45-4.57-10.45-10.83ZM96.1 196.96v6.2h9.23l-.35 2.97H92.75v-20.61h12.23l.35 2.97H96.1v5.74h8.44v2.74H96.1ZM108.33 195.83c0-6.17 4.22-10.89 10.66-10.89s10.69 4.72 10.69 10.89-4.31 10.89-10.69 10.89-10.66-4.72-10.66-10.89Zm17.76 0c0-4.42-2.74-7.71-7.1-7.71s-7.07 3.29-7.07 7.71 2.74 7.72 7.07 7.72 7.1-3.35 7.1-7.72ZM149.58 205.64l-.2.5h-3.49l-5.88-8.56h-2.79v8.56h-3.35v-20.61h6.43c4.63 0 7.16 2.04 7.16 6.14 0 2.71-1.43 4.57-4.05 5.36l6.17 8.62ZM137.2 188.4v6.41h2.59c3.12 0 4.31-1.02 4.31-3.14 0-2.27-1.28-3.26-4.31-3.26h-2.59ZM150.91 195.89c0-6.38 4.45-10.95 10.89-10.95 3.35 0 6.03 1.25 8.09 2.65l-.52 3.38h-.12c-2.1-1.66-4.45-2.85-7.28-2.85-4.66 0-7.45 3.23-7.45 7.74s2.71 7.74 7.02 7.74c1.75 0 3.49-.44 5.12-1.37v-4.48h-5.42v-2.71h8.53v9.08c-3.03 1.95-5.74 2.59-8.41 2.59-6.43 0-10.45-4.57-10.45-10.83ZM178.36 196.96v6.2h9.23l-.35 2.97h-12.23v-20.61h12.23l.35 2.97h-9.23v5.74h8.44v2.74h-8.44ZM212.51 191.9c0 3.84-2.56 6.26-7.07 6.26h-3.35v7.98h-3.35v-20.61h6.52c4.77 0 7.25 2.24 7.25 6.38Zm-7.72 3.43c3.03 0 4.4-1.11 4.4-3.44 0-2.45-1.4-3.52-4.4-3.52h-2.71v6.96h2.71ZM217.54 185.52l2.85 5.24c.79 1.48 1.43 2.79 2.12 4.22h.09c.7-1.43 1.34-2.74 2.12-4.19l2.82-5.27h3.78l.09.12-7.19 12.14v8.36h-3.38v-8.36l-7.19-12.14.09-.12h3.79ZM234.22 206.14v-20.61h2.74l8.09 9.52c1.22 1.49 2.45 2.97 3.79 4.72h.09c-.12-1.75-.15-3.38-.15-5.42v-8.82h3.32v20.93h-1.86l-8.94-10.45a108.45 108.45 0 0 1-3.81-4.69h-.06c.12 1.78.12 3.46.12 5.47v9.35h-3.32ZM260.74 196.96v6.2h9.23l-.35 2.97h-12.23v-20.61h12.23l.35 2.97h-9.23v5.74h8.44v2.74h-8.44ZM291.6 192.28h.9l-2.94 13.86h-.93l.41-2.1c-1.69 1.54-3.64 2.68-5.36 2.68-2.5 0-4.16-2.04-4.16-5.15 0-5.04 3.61-9.87 7.92-9.87 1.46 0 2.82.61 3.9 1.66l.26-1.08Zm-7.63 13.48c1.78 0 3.64-1.28 5.24-2.79l1.83-8.71c-1.08-1.02-2.18-1.6-3.7-1.6-3.7 0-6.75 4.42-6.75 8.79 0 2.68 1.37 4.31 3.38 4.31ZM308.39 197.87l-1.78 8.27h-1.02l1.75-8.21c.79-3.67 0-5.27-2.42-5.27-2.12 0-4.48 1.46-6.7 3.93l-2.01 9.55h-1.02l2.94-13.86h.93l-.58 3.09c2.21-2.36 4.57-3.67 6.75-3.67 2.94 0 4.05 1.95 3.14 6.17ZM326.96 184.74h1.02l-4.54 21.4h-.93l.41-2.12c-1.75 1.54-3.87 2.71-5.91 2.71-3 0-4.75-2.1-4.75-5.39 0-4.95 3.52-9.64 8.3-9.64 1.8 0 3.38.79 4.51 1.92l1.89-8.88Zm-9.69 21.02c2.12 0 4.16-1.28 5.79-2.74l1.8-8.47c-1.14-1.08-2.53-1.89-4.37-1.89-4.11 0-7.16 4.25-7.16 8.59 0 2.79 1.46 4.51 3.93 4.51ZM337.67 185.52h3.35v17.41c0 3.64-1.22 5.47-4.34 6.87l-1.46-2.21.03-.15c1.66-.82 2.42-1.86 2.42-4.22v-17.7ZM355.28 185.52l8.36 20.5-.12.12h-3.64l-1.86-4.83h-9.03l-1.83 4.83h-3.61l-.12-.12 8.44-20.5h3.41Zm-5.26 13.19h6.99l-2.1-5.44c-.5-1.34-.99-2.79-1.37-4.19h-.09c-.38 1.4-.87 2.85-1.37 4.19l-2.07 5.44ZM365.94 185.52l2.85 5.24c.79 1.48 1.43 2.79 2.12 4.22h.09c.7-1.43 1.34-2.74 2.12-4.19l2.82-5.27h3.78l.09.12-7.19 12.14v8.36h-3.38v-8.36l-7.19-12.14.09-.12h3.79ZM403.08 191.9c0 3.84-2.56 6.26-7.07 6.26h-3.35v7.98h-3.35v-20.61h6.52c4.77 0 7.25 2.24 7.25 6.38Zm-7.71 3.43c3.03 0 4.4-1.11 4.4-3.44 0-2.45-1.4-3.52-4.4-3.52h-2.71v6.96h2.71ZM410.04 196.96v6.2h9.23l-.35 2.97h-12.23v-20.61h12.23l.35 2.97h-9.23v5.74h8.44v2.74h-8.44ZM423.72 206.14v-20.61h2.74l8.09 9.52c1.22 1.49 2.45 2.97 3.79 4.72h.09c-.12-1.75-.15-3.38-.15-5.42v-8.82h3.32v20.93h-1.86l-8.94-10.45a108.45 108.45 0 0 1-3.81-4.69h-.06c.12 1.78.12 3.46.12 5.47v9.35h-3.32ZM445.72 204.85l.47-3.26h.12c1.54 1.14 3.7 2.21 5.97 2.21s3.64-1.34 3.64-3c0-1.51-.76-2.56-4.4-4.08-4.16-1.75-5.62-3.58-5.62-6.38 0-3.03 2.42-5.42 6.61-5.42 2.3 0 4.25.64 5.76 1.51l-.44 3.23h-.15c-1.57-1.17-3.43-1.86-5.27-1.86-1.95 0-3.03 1.08-3.03 2.47s.7 2.12 4.34 3.76c4.51 2.04 5.71 3.87 5.71 6.58 0 3.38-2.77 6.08-7.16 6.08-2.74 0-5.01-.93-6.55-1.86ZM472.1 194.34l8.04 11.65-.09.15h-3.96l-6.26-9.2-2.97 3.41v5.79h-3.35v-20.61h3.35v3.78c0 2.13-.06 4.57-.12 6.75h.09c1.34-1.63 2.68-3.29 3.99-4.83l4.92-5.71h3.93l.06.15-7.63 8.68ZM486.13 196.96v6.2h9.23l-.35 2.97h-12.23v-20.61h12.23l.35 2.97h-9.23v5.74h8.44v2.74h-8.44ZM333.61 5.51h-27.73l-14.04 23.62 13.37 22.09 28.4-45.71zM292.68 88.35l17.31 27.4h27.55l-31.76-48.98-13.1 21.58zM300.33 58.78l-35.97 56.97H236.8l37.01-57.01-33.07-53.23h27.56l32.04 53.27ZM100 5.51v115.75L21.89 47.72v68.03H0V0l78.11 73.55V5.51H100ZM161.58 5.51v110.24h-21.89V5.51h21.89Zm-7.56 0h55.75v19.21h-55.75V5.51Zm0 42.37h52.6v18.74h-52.6V47.88Zm0 48.66h55.75v19.21h-55.75V96.54ZM386.94 5.51v72.76c0 4.2.73 7.82 2.21 10.87 1.47 3.05 3.67 5.43 6.61 7.17 2.94 1.73 6.56 2.6 10.87 2.6s7.93-.87 10.87-2.6c2.94-1.73 5.14-4.12 6.61-7.17 1.47-3.04 2.21-6.67 2.21-10.87V5.51H449v74.02c0 6.51-1.05 12.23-3.15 17.17-2.1 4.94-5.07 9.08-8.9 12.44-3.83 3.36-8.32 5.93-13.47 7.72-5.14 1.78-10.76 2.68-16.85 2.68s-11.71-.89-16.85-2.68c-5.15-1.78-9.61-4.36-13.39-7.72-3.78-3.36-6.69-7.51-8.74-12.44s-3.07-10.65-3.07-17.17V5.51h22.36ZM505.13 89.29c2.78 3.05 5.85 5.43 9.21 7.17 3.36 1.73 6.98 2.6 10.87 2.6 3.04 0 5.69-.52 7.95-1.58 2.26-1.05 4.02-2.54 5.28-4.49 1.26-1.94 1.89-4.23 1.89-6.85 0-3.36-.87-6.11-2.6-8.27-1.73-2.15-4.28-4.04-7.64-5.67-3.36-1.63-7.51-3.39-12.44-5.28-2.73-1.05-5.78-2.36-9.13-3.94-3.36-1.57-6.59-3.67-9.69-6.3-3.1-2.62-5.64-5.77-7.64-9.45-2-3.67-2.99-8.14-2.99-13.39 0-6.19 1.6-11.58 4.8-16.14 3.2-4.57 7.56-8.11 13.07-10.63 5.51-2.52 11.73-3.78 18.66-3.78s12.96 1.18 18.11 3.54c5.14 2.36 9.42 5.35 12.83 8.98 3.41 3.62 6.06 7.32 7.95 11.1l-17.64 10.08a43.59 43.59 0 0 0-5.43-7.24c-2.05-2.2-4.38-3.94-7.01-5.2-2.62-1.26-5.57-1.89-8.82-1.89-2.94 0-5.38.47-7.32 1.42-1.94.94-3.41 2.18-4.41 3.7s-1.5 3.23-1.5 5.12c0 2 .52 3.83 1.58 5.51 1.05 1.68 2.6 3.23 4.65 4.65 2.05 1.42 4.62 2.78 7.72 4.09 3.1 1.31 6.69 2.7 10.79 4.17 3.57 1.26 7.03 2.83 10.39 4.72 3.36 1.89 6.35 4.2 8.98 6.93 2.62 2.73 4.72 5.91 6.3 9.53 1.58 3.62 2.36 7.74 2.36 12.36 0 5.35-1.08 10.11-3.23 14.25a31.958 31.958 0 0 1-8.74 10.55c-3.68 2.89-7.82 5.09-12.44 6.61-4.62 1.52-9.4 2.28-14.33 2.28-6.83 0-13.15-1.26-18.98-3.78-5.83-2.52-10.89-5.93-15.2-10.24-4.31-4.3-7.67-9.13-10.08-14.49l16.22-11.5c2.31 4.09 4.85 7.67 7.64 10.71Z"
    style="fill:#fff" />
  <path d="m300.39 58.78-35.97 56.97h-27.56l37.01-57.01-33.08-53.23h27.56l32.04 53.27Z" style="fill:#fff" />
</svg>